# xmcd
#
# Track frame offsets: 
#        150
#        14560
#        29658
#        52710
#        70313
#        92669
#        105858
#        121454
#        138576
#        148999
#        165020
#        179665
#        200050
#        214725
#        229845
#        243706
#
# Disc length: 3423 seconds
#
# Revision: 2
# Processed by: cddbd v1.5.2PL0 Copyright (c) Steve Scherf et al.
# Submitted via: ExactAudioCopy v0.99pb5
#
DISCID=ea0d5d10
DTITLE=Various Artist - Crossover Collection 2
DYEAR=2007
DGENRE=New Age
TTITLE0=Secret Garden - Serenade to Spring
TTITLE1=Acoustic Alchemy - Last Summer Song
TTITLE2=Lighthouse Family - High
TTITLE3=Vanessa Williams - Betcha Never
TTITLE4=Dave Grusin and Lee Ritenour - Early A.M. Attitude
TTITLE5=John Barry - Somewhere in Time
TTITLE6=Chris De Burgh - Here is Your Paradise
TTITLE7=Charlene - I've Never Been to Me
TTITLE8=Astrud Gilberto - Fly Me to The Moon
TTITLE9=James Last Orchestra - Chanson Triste
TTITLE10=Chuck Mangione - Children of Sanchez
TTITLE11=Cranberries - Ode to My Family
TTITLE12=Gheoge Zamfir - Ete d'Amour
TTITLE13=Rita Coolidge - I'd Rather Leave While I'm in Love
TTITLE14=Mantovani Orchestra - Cara Mia
TTITLE15=Sissel - Marble Halls
EXTD=YEAR: 2007
EXTT0=
EXTT1=
EXTT2=
EXTT3=
EXTT4=
EXTT5=
EXTT6=
EXTT7=
EXTT8=
EXTT9=
EXTT10=
EXTT11=
EXTT12=
EXTT13=
EXTT14=
EXTT15=
PLAYORDER=
